<?xml version="1.0" encoding="UTF-8"?>
<!DOCTYPE svg PUBLIC "-//W3C//DTD SVG 1.1//EN" "http://www.w3.org/Graphics/SVG/1.1/DTD/svg11.dtd">
<!-- Creator: CorelDRAW -->
<svg xmlns="http://www.w3.org/2000/svg" xml:space="preserve" width="56.3125mm" height="56.3125mm" version="1.1" style="shape-rendering:geometricPrecision; text-rendering:geometricPrecision; image-rendering:optimizeQuality; fill-rule:evenodd; clip-rule:evenodd"
viewBox="0 0 360.9 360.9"
 xmlns:xlink="http://www.w3.org/1999/xlink"
 xmlns:xodm="http://www.corel.com/coreldraw/odm/2003">
 <defs>
  <style type="text/css">
   <![CDATA[
    .fil0 {fill:none}
    .fil1 {fill:#3C50E0;fill-rule:nonzero}
   ]]>
  </style>
 </defs>
 <g id="Layer_x0020_1">
  <metadata id="CorelCorpID_0Corel-Layer"/>
  <rect class="fil0" x="-0" y="-0" width="360.9" height="360.9"/>
  <g id="_2261586271664">
   <path class="fil1" d="M113.68 167.2c-5.11,-5.65 -7.76,-12.73 -7.75,-19.87 -0.01,-7.14 2.63,-14.22 7.75,-19.87l51.28 -51.28c11.57,-11.57 11.57,-30.32 0,-41.89 -11.57,-11.57 -30.32,-11.57 -41.89,0l-91.51 91.51c-0.2,0.19 -0.44,0.32 -0.64,0.52 -5.8,5.8 -8.68,13.4 -8.67,21 -0.01,7.6 2.87,15.2 8.67,21 0.2,0.2 0.43,0.33 0.64,0.52l91.51 91.51c11.57,11.57 30.32,11.57 41.89,0 11.57,-11.57 11.57,-30.32 0,-41.89l-51.28 -51.28z"/>
   <path class="fil1" d="M247.22 233.43c5.11,-5.65 7.76,-12.73 7.75,-19.87 0.01,-7.14 -2.63,-14.22 -7.75,-19.87l-51.28 -51.28c-11.57,-11.57 -11.57,-30.32 0,-41.88 11.57,-11.57 30.32,-11.57 41.89,0l91.51 91.51c0.2,0.19 0.44,0.32 0.64,0.52 5.8,5.8 8.68,13.4 8.67,21 0.01,7.6 -2.87,15.2 -8.67,21 -0.2,0.2 -0.43,0.33 -0.64,0.52l-91.51 91.51c-11.57,11.57 -30.32,11.57 -41.89,0 -11.57,-11.57 -11.57,-30.32 0,-41.89l51.28 -51.28z"/>
  </g>
 </g>
</svg>
