<?xml version="1.0" encoding="UTF-8"?>
<!DOCTYPE svg PUBLIC "-//W3C//DTD SVG 1.1//EN" "http://www.w3.org/Graphics/SVG/1.1/DTD/svg11.dtd">
<!-- Creator: CorelDRAW -->
<svg xmlns="http://www.w3.org/2000/svg" xml:space="preserve" width="153.85mm" height="38.1169mm" version="1.1" style="shape-rendering:geometricPrecision; text-rendering:geometricPrecision; image-rendering:optimizeQuality; fill-rule:evenodd; clip-rule:evenodd"
viewBox="0 0 13989.41 3465.92"
 xmlns:xlink="http://www.w3.org/1999/xlink"
 xmlns:xodm="http://www.corel.com/coreldraw/odm/2003">
 <defs>
  <style type="text/css">
   <![CDATA[
    .fil1 {fill:#2B2A29;fill-rule:nonzero}
    .fil2 {fill:#2B2A29;fill-rule:nonzero}
    .fil0 {fill:#3C50E0;fill-rule:nonzero}
    .fil3 {fill:#434242;fill-rule:nonzero}
   ]]>
  </style>
 </defs>
 <g id="Layer_x0020_1">
  <metadata id="CorelCorpID_0Corel-Layer"/>
  <g id="_1742602199344">
   <path class="fil0" d="M1549.89 2459.58c-85.01,38.14 -177.4,42.13 -260.38,14.99 -83.06,-26.82 -155.49,-84.35 -201.83,-165.17l-402.64 -790.23c-90.82,-178.24 -308.94,-249.11 -487.18,-158.3 -178.24,90.82 -249.12,308.95 -158.3,487.19l718.56 1410.27c1.46,3.07 2.08,6.3 3.63,9.36 45.54,89.35 123.06,151.63 211.51,180.18 88.34,28.89 187.68,24.07 277.02,-21.45 3.06,-1.56 5.46,-3.81 8.45,-5.44l1410.27 -718.56c178.24,-90.82 249.11,-308.95 158.3,-487.19 -90.83,-178.24 -308.96,-249.11 -487.2,-158.3l-790.22 402.65z"/>
   <path class="fil0" d="M2824.92 1156.53c-46.35,-80.82 -118.76,-138.36 -201.84,-165.18 -82.96,-27.12 -175.37,-23.14 -260.37,15l-790.23 402.64c-178.24,90.81 -396.35,19.94 -487.16,-158.29 -90.84,-178.25 -19.96,-396.38 158.29,-487.19l1410.25 -718.57c2.99,-1.61 5.39,-3.87 8.43,-5.42 89.36,-45.54 188.7,-50.36 277.03,-21.47 88.45,28.55 165.99,90.84 211.52,180.2 1.55,3.05 2.16,6.28 3.63,9.35l718.57 1410.27c90.81,178.24 19.94,396.36 -158.3,487.18 -178.25,90.81 -396.37,19.94 -487.18,-158.3l-402.64 -790.22z"/>
  </g>
  <path class="fil1" d="M4725.24 2775.01l0 -2113.16 448 0 0 1743.12 857.49 0 0 370.03 -1305.49 0zm2067.43 -1649.37c216.6,0 382.86,47.36 498.32,141.59 115.95,94.73 173.67,238.31 173.67,430.73l0 1077.05 -307.87 0 -85.35 -219.56 -11.35 0c-46.38,57.73 -93.75,105.1 -142.09,141.6 -47.86,36.51 -103.61,63.64 -165.78,80.92 -62.66,17.27 -139.13,26.14 -228.43,26.14 -95.72,0 -181.08,-18.75 -256.56,-55.26 -75.98,-36.51 -135.18,-92.76 -178.6,-168.25 -43.42,-75.48 -65.12,-171.69 -65.12,-288.63 0,-171.2 60.19,-298 180.58,-379.41 120.38,-81.41 301.46,-126.31 542.23,-134.69l280.24 -8.88 0 -71.04c0,-84.37 -22.2,-146.54 -66.61,-186.5 -43.91,-39.47 -105.59,-59.2 -185.02,-59.2 -77.95,0 -154.42,11.35 -229.42,33.55 -75.49,22.2 -150.48,49.83 -225.48,83.87l-146.04 -298c85.35,-45.39 181.57,-80.92 288.13,-107.07 106.57,-25.65 216.59,-38.97 330.56,-38.97zm233.87 900.42l-170.71 5.92c-142.59,3.95 -241.27,29.61 -297.02,76.47 -55.26,47.36 -82.89,109.53 -82.89,186.5 0,67.59 19.74,115.45 59.21,144.07 39.46,28.12 91.27,42.43 154.92,42.43 94.24,0 174.16,-27.62 238.8,-83.87 65.13,-55.76 97.69,-135.18 97.69,-238.31l0 -133.21zm1561.21 -897.47c22.2,0 47.86,1.48 77.46,3.46 29.11,2.46 53.28,5.92 71.54,9.37l-33.55 413.45c-14.31,-4.44 -35.03,-8.38 -61.18,-10.86 -26.64,-2.46 -49.34,-3.45 -68.59,-3.45 -57.23,0 -112,7.4 -165.77,21.7 -53.28,14.31 -101.14,37.99 -143.58,70.06 -42.43,32.56 -75.98,74.5 -100.65,127.29 -24.67,52.3 -37,116.93 -37,192.91l0 822.47 -440.59 0 0 -1615.83 334.02 0 64.63 271.37 21.71 0c32.07,-54.77 71.54,-105.1 119.4,-150.98 47.86,-45.88 102.13,-82.4 163.31,-109.53 61.18,-27.62 127.29,-41.45 198.83,-41.45zm875.91 0c149.49,0 278.26,28.62 386.31,85.85 107.56,57.72 190.94,140.61 249.65,249.64 59.2,108.55 88.32,241.76 88.32,398.66l0 214.13 -1042.02 0c4.93,124.33 41.94,222.02 112,292.57 69.57,71.04 166.76,106.57 291.1,106.57 103.11,0 197.84,-10.85 283.2,-32.07 85.85,-21.21 174.16,-52.79 264.95,-95.22l0 340.93c-80.43,39.47 -163.81,68.58 -251.14,86.84 -87.33,18.25 -192.91,27.62 -317.24,27.62 -161.83,0 -304.91,-30.1 -429.74,-89.79 -124.83,-59.7 -223.01,-150.98 -293.56,-273.33 -71.04,-122.36 -106.08,-276.3 -106.08,-462.3 0,-188.97 31.58,-346.36 95.72,-472.17 64.14,-125.82 153.44,-220.05 268.39,-283.21 114.47,-63.15 248.17,-94.73 400.14,-94.73zm2.96 313.79c-85.85,0 -156.9,27.13 -213.14,82.39 -56.25,54.77 -88.81,141.11 -97.69,258.54l618.71 0c-0.99,-65.62 -12.83,-123.84 -35.53,-174.66 -22.2,-51.32 -56.25,-91.77 -101.15,-121.37 -44.4,-30.1 -101.63,-44.9 -171.2,-44.9zm1503.49 1361.73c-159.85,0 -296.52,-29.11 -409.01,-87.82 -112.99,-58.22 -198.83,-148.5 -257.55,-270.87 -58.71,-122.35 -87.83,-278.76 -87.83,-469.7 0,-197.84 33.06,-358.69 100.16,-483.51 67.11,-124.83 159.85,-216.59 279.25,-275.3 118.91,-58.71 257.06,-88.32 413.95,-88.32 111.51,0 208.21,10.86 289.62,32.56 81.41,21.71 152.45,47.36 213.14,77.46l-129.76 340.93c-69.57,-27.62 -134.2,-50.82 -193.91,-68.58 -59.69,-17.76 -119.4,-26.64 -179.09,-26.64 -76.97,0 -141.11,17.76 -192.42,54.28 -50.81,36.02 -88.8,90.28 -113.97,162.32 -25.16,72.53 -37.5,162.82 -37.5,271.86 0,107.06 13.32,195.87 40.46,265.93 26.64,70.55 65.61,122.85 116.93,156.9 51.31,34.04 112.98,51.31 186.49,51.31 91.27,0 173.17,-12.34 244.23,-37.01 71.54,-24.67 140.61,-58.71 208.21,-103.11l0 376.94c-67.6,42.43 -138.15,73.02 -211.66,91.77 -74.01,19.24 -167.25,28.62 -279.75,28.62zm1314.03 -351.28c47.86,0 95.23,-4.94 140.62,-14.8 45.88,-9.37 91.27,-21.7 136.67,-36.02l0 328.1c-47.36,21.22 -105.59,38.98 -175.65,52.79 -69.57,13.81 -146.04,21.21 -228.93,21.21 -96.21,0 -183.04,-15.79 -259.52,-47.36 -76.47,-31.08 -136.67,-85.35 -180.58,-163.31 -43.91,-77.46 -66.11,-185.51 -66.11,-324.15l0 -779.05 -210.67 0 0 -186.49 242.74 -147.52 127.29 -341.42 281.72 0 0 344.37 452.43 0 0 331.06 -452.43 0 0 779.05c0,61.68 17.76,107.56 52.79,137.66 35.03,30.59 81.41,45.88 139.62,45.88zm1033.3 -1327.19c216.6,0 382.86,47.36 498.32,141.59 115.95,94.73 173.67,238.31 173.67,430.73l0 1077.05 -307.87 0 -85.35 -219.56 -11.35 0c-46.38,57.73 -93.75,105.1 -142.09,141.6 -47.86,36.51 -103.61,63.64 -165.78,80.92 -62.66,17.27 -139.13,26.14 -228.43,26.14 -95.72,0 -181.08,-18.75 -256.56,-55.26 -75.98,-36.51 -135.18,-92.76 -178.6,-168.25 -43.42,-75.48 -65.12,-171.69 -65.12,-288.63 0,-171.2 60.19,-298 180.58,-379.41 120.38,-81.41 301.46,-126.31 542.23,-134.69l280.24 -8.88 0 -71.04c0,-84.37 -22.2,-146.54 -66.61,-186.5 -43.91,-39.47 -105.59,-59.2 -185.02,-59.2 -77.95,0 -154.42,11.35 -229.42,33.55 -75.49,22.2 -150.48,49.83 -225.48,83.87l-146.04 -298c85.35,-45.39 181.57,-80.92 288.13,-107.07 106.57,-25.65 216.59,-38.97 330.56,-38.97zm233.87 900.42l-170.71 5.92c-142.59,3.95 -241.27,29.61 -297.02,76.47 -55.26,47.36 -82.89,109.53 -82.89,186.5 0,67.59 19.74,115.45 59.21,144.07 39.46,28.12 91.27,42.43 154.92,42.43 94.24,0 174.16,-27.62 238.8,-83.87 65.13,-55.76 97.69,-135.18 97.69,-238.31l0 -133.21z"/>
  <g id="_1742602199824">
   <path class="fil2" d="M4995.78 1.14l840.66 0 0 112.8 -408.25 0 0 778.89 -128.92 0 0 -778.89 -303.49 0 0 -112.8zm623.11 306.18l0 134.29 8.06 -10.74c56.4,-88.64 110.12,-123.54 166.53,-123.54 45.66,0 91.31,10.74 136.97,53.71l-59.09 102.06c-40.29,-37.6 -77.89,-56.4 -112.81,-56.4 -37.6,0 -69.83,18.8 -96.69,53.72 -29.54,34.92 -42.97,77.89 -42.97,126.24l0 306.18 -115.49 0 0 -585.5 115.49 0 0 -0.01zm596.25 585.51l0 -72.52c-26.85,24.17 -53.71,45.66 -85.95,61.78 -32.23,13.42 -61.77,21.49 -94,21.49 -37.6,0 -72.52,-8.07 -102.06,-26.86 -32.23,-18.8 -56.4,-42.97 -72.52,-75.21 -16.11,-32.23 -24.17,-85.95 -24.17,-158.46l0 -335.73 118.17 0 0 335.73c0,59.09 8.06,104.75 26.86,128.92 16.11,24.18 48.35,34.92 91.32,34.92 56.4,0 102.06,-26.85 142.34,-80.57l0 -418.99 115.5 0 0 585.51 -115.5 0 0 0zm118.18 -585.51l0 75.21c51.03,-59.09 110.11,-75.21 177.27,-75.21 34.92,0 69.83,-2.68 99.38,16.12 32.23,18.79 56.4,45.66 72.52,77.89 16.11,32.23 24.17,85.95 24.17,155.77l0 335.73 -115.49 0 0 -333.04c0,-61.78 -8.06,-102.07 -26.86,-128.92 -18.79,-26.86 -48.34,-37.61 -91.31,-37.61 -56.4,0 -102.07,26.86 -139.67,80.58l0 418.98 -118.17 0 0 -585.51 118.17 0 0 0zm663.4 596.26l-2.69 10.74c24.18,5.37 40.29,16.11 53.72,32.23 13.43,16.11 18.8,34.92 18.8,53.71 0,32.23 -10.75,59.09 -37.61,83.26 -26.85,21.49 -67.14,32.23 -123.54,32.23 -16.11,0 -29.54,0 -42.97,-2.68l0 -72.52c21.49,2.68 34.92,2.68 40.29,2.68 24.17,0 42.97,-2.68 56.4,-13.43 8.06,-5.36 13.43,-13.42 13.43,-21.49 0,-10.74 -5.37,-18.79 -13.43,-24.17 -8.07,-8.06 -24.18,-10.75 -48.35,-10.75 -5.37,0 -8.06,0 -13.43,0l26.86 -77.88c-53.72,-10.75 -104.75,-40.29 -150.41,-85.95 -45.66,-45.66 -69.83,-115.5 -69.83,-206.81 0,-91.32 26.86,-166.53 80.57,-222.93 53.72,-56.39 123.54,-72.52 209.49,-72.52 77.89,0 94.01,-5.36 169.21,29.54l0 123.55c-59.09,-37.61 -112.81,-56.4 -163.84,-56.4 -51.03,0 -94,18.79 -128.92,53.71 -32.23,37.61 -48.35,85.95 -48.35,142.35 0,59.09 16.12,107.43 53.72,142.35 37.6,34.92 85.95,53.72 147.72,53.72 42.97,0 94,-13.43 153.09,-40.29l0 115.49c-59.09,21.49 -115.49,32.23 -171.89,32.23l-8.06 0 0 0z"/>
   <path class="fil3" d="M7171.28 508.76c0,-61.78 24.18,-110.12 69.83,-147.72 45.66,-34.92 107.43,-53.72 185.32,-53.72l241.72 0 0 91.32 -118.18 0c24.18,21.49 40.29,42.97 48.35,61.78 8.06,18.79 13.43,42.97 13.43,67.14 0,29.54 -8.06,59.09 -26.86,88.63 -16.11,29.55 -40.29,53.72 -67.14,69.83 -26.86,13.43 -72.52,26.86 -134.29,37.61 -42.97,5.36 -64.46,21.49 -64.46,45.66 0,13.43 8.06,24.17 24.17,32.23 16.11,8.07 45.66,18.8 88.64,26.86 72.52,16.11 118.17,29.54 136.97,37.6 21.49,8.07 40.29,21.49 56.4,37.61 29.54,29.54 42.97,64.46 42.97,107.43 0,53.71 -24.18,99.38 -75.21,131.6 -48.34,34.92 -115.49,51.03 -198.75,51.03 -83.25,0 -150.41,-18.79 -198.74,-51.03 -51.03,-32.23 -75.21,-77.89 -75.21,-134.29 0,-80.57 48.35,-131.6 147.72,-153.09 -40.29,-26.86 -59.09,-51.03 -59.09,-75.21 0,-18.79 8.06,-34.91 24.17,-51.03 16.11,-16.11 40.29,-26.85 67.14,-34.92 -85.95,-37.6 -128.92,-99.38 -128.92,-185.32l0 0.01zm217.56 -102.07c-29.55,0 -56.4,10.75 -80.58,32.23 -21.49,21.49 -32.23,48.34 -32.23,77.89 0,29.54 10.74,53.71 32.23,75.2 21.49,18.8 51.03,29.54 83.26,29.54 32.23,0 2.68,-10.74 24.17,-32.23 21.49,-18.8 32.23,-45.66 32.23,-75.21 0,-29.54 -10.75,-56.4 -32.23,-75.2 -24.17,-21.49 8.07,-32.23 -26.85,-32.23l0 0zm-26.86 515.67c-37.61,0 -69.83,8.06 -96.69,24.18 -24.17,16.11 -34.92,37.6 -34.92,64.46 0,59.09 53.72,88.63 161.15,88.63 51.03,0 91.32,-8.06 120.86,-21.49 26.86,-16.11 42.97,-37.6 42.97,-64.46 0,-26.86 -18.8,-48.35 -53.72,-67.14 -37.6,-16.12 -83.25,-24.18 -139.66,-24.18zm349.16 -862.14c21.49,0 37.6,5.37 51.03,18.79 13.43,13.43 18.79,29.55 18.79,48.35 0,18.8 -5.36,34.92 -18.79,48.35 -13.43,13.43 -29.54,21.49 -51.03,21.49 -16.12,0 -32.23,-8.06 -45.66,-21.49 -13.43,-13.43 -21.49,-29.54 -21.49,-48.35 0,-16.11 8.06,-32.23 21.49,-45.66 13.43,-16.11 29.54,-21.49 45.66,-21.49zm-56.4 247.09l115.49 0 0 585.51 -115.49 0 0 -585.51zm179.95 -306.18l115.49 0 0 891.68 -115.49 0 0 -891.68z"/>
  </g>
 </g>
</svg>
