<?xml version="1.0" encoding="UTF-8"?>
<!DOCTYPE svg PUBLIC "-//W3C//DTD SVG 1.1//EN" "http://www.w3.org/Graphics/SVG/1.1/DTD/svg11.dtd">
<!-- Creator: CorelDRAW -->
<svg xmlns="http://www.w3.org/2000/svg" xml:space="preserve" width="56.3125mm" height="56.3125mm" version="1.1" style="shape-rendering:geometricPrecision; text-rendering:geometricPrecision; image-rendering:optimizeQuality; fill-rule:evenodd; clip-rule:evenodd"
viewBox="0 0 1129.06 1129.06"
 xmlns:xlink="http://www.w3.org/1999/xlink"
 xmlns:xodm="http://www.corel.com/coreldraw/odm/2003">
 <defs>
  <style type="text/css">
   <![CDATA[
    .fil0 {fill:#FEFEFE}
    .fil1 {fill:#3C50E0;fill-rule:nonzero}
   ]]>
  </style>
 </defs>
 <g id="Layer_x0020_1">
  <metadata id="CorelCorpID_0Corel-Layer"/>
  <rect class="fil0" x="-0" y="-0" width="1129.06" height="1129.06" rx="227.84" ry="227.84"/>
  <g id="_1777575756064">
   <path class="fil1" d="M472.21 728.67c-19.44,8.68 -40.62,9.68 -59.67,3.66 -19.07,-5.95 -35.74,-18.84 -46.46,-36.99l-93.23 -177.6c-21.03,-40.06 -71.11,-55.79 -111.87,-35.14 -40.75,20.65 -56.75,69.87 -35.72,109.93l166.38 316.95c0.34,0.69 0.49,1.42 0.84,2.1 10.54,20.08 28.39,34.03 48.7,40.36 20.28,6.41 43.05,5.22 63.48,-5.13 0.7,-0.35 1.25,-0.86 1.93,-1.23l322.46 -163.41c40.75,-20.65 56.75,-69.87 35.72,-109.93 -21.03,-40.06 -71.12,-55.79 -111.87,-35.14l-180.68 91.57z"/>
   <path class="fil1" d="M762.98 433.72c-10.72,-18.16 -27.39,-31.04 -46.46,-36.99 -19.05,-6.02 -40.23,-5.02 -59.67,3.66l-180.69 91.57c-40.75,20.65 -90.84,4.92 -111.86,-35.13 -21.03,-40.06 -5.04,-89.28 35.72,-109.93l322.45 -163.42c0.68,-0.37 1.23,-0.88 1.93,-1.23 20.43,-10.35 43.2,-11.55 63.48,-5.13 20.31,6.34 38.16,20.28 48.7,40.37 0.36,0.68 0.5,1.41 0.84,2.1l166.38 316.95c21.03,40.06 5.04,89.27 -35.72,109.93 -40.76,20.65 -90.84,4.92 -111.87,-35.13l-93.23 -177.6z"/>
  </g>
 </g>
</svg>
