<?xml version="1.0" encoding="UTF-8"?>
<!DOCTYPE svg PUBLIC "-//W3C//DTD SVG 1.1//EN" "http://www.w3.org/Graphics/SVG/1.1/DTD/svg11.dtd">
<!-- Creator: CorelDRAW -->
<svg xmlns="http://www.w3.org/2000/svg" xml:space="preserve" width="56.3125mm" height="56.3125mm" version="1.1" style="shape-rendering:geometricPrecision; text-rendering:geometricPrecision; image-rendering:optimizeQuality; fill-rule:evenodd; clip-rule:evenodd"
viewBox="0 0 690.66 690.66"
 xmlns:xlink="http://www.w3.org/1999/xlink"
 xmlns:xodm="http://www.corel.com/coreldraw/odm/2003">
 <defs>
  <style type="text/css">
   <![CDATA[
    .fil0 {fill:#3C50E0}
    .fil1 {fill:#FEFEFE;fill-rule:nonzero}
   ]]>
  </style>
 </defs>
 <g id="Layer_x0020_1">
  <metadata id="CorelCorpID_0Corel-Layer"/>
  <rect class="fil0" x="-0" y="-0" width="690.66" height="690.66" rx="139.37" ry="139.37"/>
  <g id="_1742598652832">
   <path class="fil1" d="M232.78 323.01c-8.62,-9.52 -13.08,-21.46 -13.05,-33.49 -0.02,-12.03 4.43,-23.97 13.05,-33.49l86.43 -86.43c19.49,-19.49 19.49,-51.1 0,-70.6 -19.49,-19.49 -51.1,-19.49 -70.6,0l-154.24 154.24c-0.34,0.32 -0.74,0.54 -1.07,0.87 -9.77,9.77 -14.63,22.59 -14.61,35.4 -0.02,12.81 4.84,25.62 14.61,35.4 0.33,0.33 0.73,0.55 1.07,0.88l154.24 154.24c19.49,19.49 51.1,19.49 70.6,0 19.49,-19.5 19.49,-51.1 0,-70.6l-86.43 -86.43z"/>
   <path class="fil1" d="M457.87 434.63c8.62,-9.52 13.08,-21.46 13.05,-33.49 0.02,-12.03 -4.43,-23.97 -13.05,-33.49l-86.43 -86.43c-19.49,-19.49 -19.49,-51.1 0,-70.59 19.49,-19.5 51.1,-19.5 70.6,0l154.24 154.24c0.34,0.32 0.74,0.54 1.07,0.87 9.77,9.77 14.64,22.59 14.61,35.4 0.02,12.81 -4.84,25.62 -14.61,35.4 -0.33,0.33 -0.73,0.55 -1.07,0.87l-154.24 154.24c-19.49,19.49 -51.1,19.49 -70.6,0 -19.49,-19.5 -19.49,-51.1 0,-70.6l86.43 -86.43z"/>
  </g>
 </g>
</svg>
