<?xml version="1.0" encoding="UTF-8"?>
<!DOCTYPE svg PUBLIC "-//W3C//DTD SVG 1.1//EN" "http://www.w3.org/Graphics/SVG/1.1/DTD/svg11.dtd">
<!-- Creator: CorelDRAW -->
<svg xmlns="http://www.w3.org/2000/svg" xml:space="preserve" width="169.629mm" height="41.6469mm" version="1.1" style="shape-rendering:geometricPrecision; text-rendering:geometricPrecision; image-rendering:optimizeQuality; fill-rule:evenodd; clip-rule:evenodd"
viewBox="0 0 17053.72 4187"
 xmlns:xlink="http://www.w3.org/1999/xlink"
 xmlns:xodm="http://www.corel.com/coreldraw/odm/2003">
 <defs>
  <style type="text/css">
   <![CDATA[
    .fil1 {fill:#2B2A29;fill-rule:nonzero}
    .fil0 {fill:#3C50E0;fill-rule:nonzero}
   ]]>
  </style>
 </defs>
 <g id="Layer_x0020_1">
  <metadata id="CorelCorpID_0Corel-Layer"/>
  <g id="_2261953640976">
   <path class="fil0" d="M1236.24 1914.4c-69.15,-76.36 -104.91,-172.16 -104.73,-268.68 -0.18,-96.5 35.58,-192.31 104.73,-268.66l693.38 -693.38c156.39,-156.39 156.39,-409.98 0,-566.38 -156.39,-156.39 -409.97,-156.39 -566.37,0l-1237.44 1237.44c-2.73,2.58 -5.92,4.34 -8.61,7.01 -78.4,78.42 -117.41,181.22 -117.2,283.97 -0.2,102.76 38.81,205.58 117.2,283.97 2.68,2.68 5.87,4.44 8.61,7.03l1237.44 1237.44c156.39,156.39 409.97,156.39 566.37,0 156.39,-156.41 156.39,-409.99 0,-566.39l-693.38 -693.37z"/>
   <path class="fil0" d="M3042.07 2809.93c69.15,-76.34 104.91,-172.15 104.73,-268.67 0.18,-96.51 -35.58,-192.32 -104.73,-268.66l-693.38 -693.39c-156.39,-156.39 -156.39,-409.96 0,-566.36 156.39,-156.41 409.97,-156.41 566.37,0l1237.44 1237.42c2.71,2.58 5.91,4.34 8.59,7.02 78.41,78.41 117.42,181.22 117.22,283.97 0.19,102.75 -38.82,205.58 -117.22,283.98 -2.67,2.67 -5.87,4.42 -8.59,7.02l-1237.44 1237.43c-156.39,156.4 -409.97,156.4 -566.37,0 -156.39,-156.4 -156.39,-409.97 0,-566.37l693.38 -693.39z"/>
  </g>
  <polygon class="fil1" points="5134.53,3258.56 5134.53,895.9 5635.41,895.9 5635.41,2844.84 6594.15,2844.84 6594.15,3258.56 "/>
  <path id="_1" class="fil1" d="M7706.25 1414.45c242.17,0 428.07,52.95 557.15,158.31 129.64,105.91 194.17,266.44 194.17,481.59l0 1204.22 -344.21 0 -95.44 -245.48 -12.69 0c-51.85,64.54 -104.81,117.5 -158.87,158.32 -53.52,40.82 -115.85,71.16 -185.35,90.46 -70.06,19.31 -155.57,29.24 -255.41,29.24 -107.02,0 -202.45,-20.96 -286.85,-61.78 -84.95,-40.82 -151.16,-103.71 -199.69,-188.11 -48.55,-84.4 -72.82,-191.96 -72.82,-322.7 0,-191.42 67.3,-333.2 201.9,-424.21 134.61,-91.02 337.06,-141.22 606.25,-150.6l313.33 -9.92 0 -79.43c0,-94.33 -24.82,-163.84 -74.47,-208.52 -49.1,-44.14 -118.05,-66.2 -206.86,-66.2 -87.16,0 -172.67,12.69 -256.52,37.52 -84.4,24.82 -168.25,55.71 -252.09,93.77l-163.29 -333.19c95.44,-50.75 203,-90.46 322.16,-119.71 119.15,-28.68 242.17,-43.57 369.6,-43.57zm261.47 1006.73l-190.87 6.62c-159.42,4.41 -269.75,33.1 -332.08,85.51 -61.79,52.96 -92.67,122.46 -92.67,208.52 0,75.57 22.06,129.08 66.19,161.08 44.14,31.44 102.05,47.44 173.21,47.44 105.36,0 194.73,-30.89 266.99,-93.78 72.82,-62.34 109.22,-151.16 109.22,-266.44l0 -148.94z"/>
  <path id="_2" class="fil1" d="M9973.48 1417.75c24.82,0 53.51,1.66 86.6,3.86 32.54,2.75 59.58,6.62 79.99,10.49l-37.51 462.26c-16,-4.97 -39.17,-9.37 -68.4,-12.13 -29.79,-2.75 -55.16,-3.86 -76.68,-3.86 -63.98,0 -125.22,8.27 -185.35,24.27 -59.58,16.01 -113.08,42.48 -160.53,78.34 -47.44,36.4 -84.95,83.29 -112.53,142.32 -27.59,58.47 -41.38,130.74 -41.38,215.69l0 919.58 -492.6 0 0 -1806.61 373.46 0 72.27 303.4 24.27 0c35.85,-61.23 79.99,-117.5 133.49,-168.8 53.52,-51.3 114.19,-92.12 182.59,-122.46 68.4,-30.89 142.33,-46.34 222.31,-46.34z"/>
  <path id="_3" class="fil1" d="M11213 1417.75c167.14,0 311.12,31.99 431.93,95.98 120.25,64.54 213.48,157.22 279.13,279.13 66.19,121.37 98.75,270.3 98.75,445.72l0 239.41 -1165.06 0c5.52,139.02 46.89,248.24 125.22,327.12 77.78,79.43 186.45,119.15 325.46,119.15 115.29,0 221.21,-12.13 316.65,-35.86 95.98,-23.72 194.73,-59.02 296.23,-106.46l0 381.18c-89.92,44.13 -183.15,76.67 -280.79,97.09 -97.64,20.41 -215.69,30.88 -354.7,30.88 -180.94,0 -340.92,-33.65 -480.48,-100.39 -139.56,-66.75 -249.34,-168.8 -328.22,-305.61 -79.43,-136.8 -118.6,-308.92 -118.6,-516.88 0,-211.28 35.3,-387.24 107.02,-527.91 71.71,-140.67 171.55,-246.03 300.09,-316.64 127.97,-70.61 277.47,-105.91 447.37,-105.91zm3.31 350.84c-95.98,0 -175.41,30.34 -238.31,92.12 -62.89,61.24 -99.29,157.77 -109.22,289.06l691.76 0c-1.11,-73.37 -14.35,-138.46 -39.72,-195.28 -24.82,-57.37 -62.89,-102.61 -113.08,-135.7 -49.64,-33.65 -113.64,-50.2 -191.42,-50.2z"/>
  <path id="_4" class="fil1" d="M13157.52 3291.11c-178.73,0 -331.54,-32.54 -457.31,-98.18 -126.33,-65.1 -222.31,-166.04 -287.95,-302.85 -65.65,-136.81 -98.19,-311.67 -98.19,-525.16 0,-221.21 36.96,-401.04 111.98,-540.6 75.03,-139.56 178.73,-242.17 312.23,-307.81 132.94,-65.65 287.4,-98.75 462.82,-98.75 124.67,0 232.79,12.13 323.82,36.4 91.01,24.28 170.45,52.96 238.3,86.61l-145.07 381.18c-77.78,-30.89 -150.05,-56.82 -216.8,-76.68 -66.75,-19.86 -133.5,-29.79 -200.25,-29.79 -86.05,0 -157.76,19.86 -215.14,60.68 -56.82,40.26 -99.29,100.95 -127.43,181.49 -28.13,81.09 -41.92,182.04 -41.92,303.95 0,119.71 14.9,219 45.23,297.33 29.79,78.88 73.37,137.35 130.74,175.41 57.38,38.06 126.33,57.38 208.52,57.38 102.05,0 193.62,-13.79 273.06,-41.38 79.99,-27.58 157.22,-65.64 232.79,-115.28l0 421.45c-75.57,47.44 -154.46,81.65 -236.65,102.61 -82.75,21.51 -187.01,31.99 -312.78,31.99z"/>
  <path id="_5" class="fil1" d="M14886.9 2898.34c53.51,0 106.47,-5.52 157.22,-16.55 51.3,-10.49 102.05,-24.27 152.8,-40.26l0 366.83c-52.96,23.72 -118.05,43.58 -196.39,59.02 -77.77,15.44 -163.28,23.72 -255.95,23.72 -107.57,0 -204.66,-17.65 -290.17,-52.95 -85.51,-34.76 -152.8,-95.44 -201.9,-182.59 -49.1,-86.61 -73.92,-207.42 -73.92,-362.42l0 -871.04 -235.55 0 0 -208.51 271.41 -164.94 142.32 -381.73 314.99 0 0 385.04 505.85 0 0 370.14 -505.85 0 0 871.04c0,68.95 19.86,120.25 59.02,153.9 39.17,34.2 91.01,51.3 156.11,51.3z"/>
  <path id="_6" class="fil1" d="M16302.4 1414.45c242.17,0 428.07,52.95 557.15,158.31 129.64,105.91 194.17,266.44 194.17,481.59l0 1204.22 -344.21 0 -95.44 -245.48 -12.69 0c-51.85,64.54 -104.81,117.5 -158.87,158.32 -53.52,40.82 -115.85,71.16 -185.35,90.46 -70.06,19.31 -155.57,29.24 -255.41,29.24 -107.02,0 -202.45,-20.96 -286.85,-61.78 -84.95,-40.82 -151.16,-103.71 -199.69,-188.11 -48.55,-84.4 -72.82,-191.96 -72.82,-322.7 0,-191.42 67.3,-333.2 201.9,-424.21 134.61,-91.02 337.06,-141.22 606.25,-150.6l313.33 -9.92 0 -79.43c0,-94.33 -24.82,-163.84 -74.47,-208.52 -49.1,-44.14 -118.05,-66.2 -206.86,-66.2 -87.16,0 -172.67,12.69 -256.52,37.52 -84.4,24.82 -168.25,55.71 -252.09,93.77l-163.29 -333.19c95.44,-50.75 203,-90.46 322.16,-119.71 119.15,-28.68 242.17,-43.57 369.6,-43.57zm261.47 1006.73l-190.87 6.62c-159.42,4.41 -269.75,33.1 -332.08,85.51 -61.79,52.96 -92.67,122.46 -92.67,208.52 0,75.57 22.06,129.08 66.19,161.08 44.14,31.44 102.05,47.44 173.21,47.44 105.36,0 194.73,-30.89 266.99,-93.78 72.82,-62.34 109.22,-151.16 109.22,-266.44l0 -148.94z"/>
 </g>
</svg>
