<?xml version="1.0" encoding="UTF-8"?>
<!DOCTYPE svg PUBLIC "-//W3C//DTD SVG 1.1//EN" "http://www.w3.org/Graphics/SVG/1.1/DTD/svg11.dtd">
<!-- Creator: CorelDRAW -->
<svg xmlns="http://www.w3.org/2000/svg" xml:space="preserve" width="169.629mm" height="41.6469mm" version="1.1" style="shape-rendering:geometricPrecision; text-rendering:geometricPrecision; image-rendering:optimizeQuality; fill-rule:evenodd; clip-rule:evenodd"
viewBox="0 0 16156.81 3966.79"
 xmlns:xlink="http://www.w3.org/1999/xlink"
 xmlns:xodm="http://www.corel.com/coreldraw/odm/2003">
 <defs>
  <style type="text/css">
   <![CDATA[
    .fil1 {fill:#FEFEFE;fill-rule:nonzero}
    .fil0 {fill:#3C50E0;fill-rule:nonzero}
   ]]>
  </style>
 </defs>
 <g id="Layer_x0020_1">
  <metadata id="CorelCorpID_0Corel-Layer"/>
  <g id="_2261591602432">
   <path class="fil0" d="M1171.22 1813.72c-65.51,-72.34 -99.39,-163.1 -99.22,-254.55 -0.17,-91.43 33.71,-182.2 99.22,-254.53l656.92 -656.92c148.17,-148.17 148.17,-388.42 0,-536.59 -148.17,-148.17 -388.41,-148.17 -536.58,0l-1172.36 1172.36c-2.59,2.45 -5.61,4.11 -8.15,6.64 -74.27,74.29 -111.23,171.68 -111.04,269.04 -0.19,97.35 36.77,194.76 111.04,269.04 2.54,2.54 5.56,4.21 8.15,6.66l1172.36 1172.36c148.17,148.17 388.41,148.17 536.58,0 148.17,-148.19 148.17,-388.43 0,-536.6l-656.92 -656.91z"/>
   <path class="fil0" d="M2882.08 2662.15c65.51,-72.32 99.39,-163.09 99.22,-254.54 0.17,-91.44 -33.71,-182.21 -99.22,-254.53l-656.92 -656.93c-148.17,-148.17 -148.17,-388.4 0,-536.57 148.17,-148.19 388.41,-148.19 536.58,0l1172.36 1172.34c2.57,2.45 5.6,4.11 8.13,6.65 74.28,74.28 111.24,171.68 111.06,269.04 0.18,97.34 -36.78,194.76 -111.06,269.05 -2.53,2.53 -5.56,4.19 -8.13,6.65l-1172.36 1172.35c-148.17,148.18 -388.41,148.18 -536.58,0 -148.17,-148.18 -148.17,-388.41 0,-536.58l656.92 -656.93z"/>
  </g>
  <polygon class="fil1" points="4864.49,3087.18 4864.49,848.78 5339.02,848.78 5339.02,2695.22 6247.35,2695.22 6247.35,3087.18 "/>
  <path id="_1" class="fil1" d="M7300.95 1340.06c229.43,0 405.56,50.17 527.85,149.99 122.82,100.34 183.96,252.43 183.96,456.26l0 1140.88 -326.11 0 -90.42 -232.57 -12.02 0c-49.12,61.15 -99.3,111.32 -150.51,150 -50.7,38.67 -109.75,67.42 -175.6,85.7 -66.38,18.3 -147.39,27.7 -241.98,27.7 -101.39,0 -191.8,-19.86 -271.76,-58.53 -80.48,-38.67 -143.21,-98.26 -189.19,-178.22 -46,-79.96 -68.99,-181.87 -68.99,-305.73 0,-181.35 63.76,-315.67 191.28,-401.9 127.53,-86.24 319.33,-133.8 574.37,-142.68l296.85 -9.4 0 -75.26c0,-89.37 -23.52,-155.23 -70.55,-197.55 -46.52,-41.81 -111.84,-62.72 -195.98,-62.72 -82.58,0 -163.59,12.02 -243.03,35.55 -79.96,23.52 -159.4,52.78 -238.83,88.84l-154.7 -315.66c90.42,-48.08 192.33,-85.7 305.21,-113.41 112.89,-27.17 229.43,-41.28 350.16,-41.28zm247.72 953.79l-180.83 6.27c-151.04,4.18 -255.56,31.36 -314.61,81.01 -58.54,50.18 -87.8,116.02 -87.8,197.55 0,71.6 20.9,122.29 62.71,152.61 41.81,29.78 96.69,44.95 164.1,44.95 99.82,0 184.49,-29.27 252.95,-88.85 68.99,-59.06 103.48,-143.21 103.48,-252.43l0 -141.11z"/>
  <path id="_2" class="fil1" d="M9448.94 1343.19c23.52,0 50.69,1.57 82.05,3.66 30.83,2.61 56.44,6.27 75.78,9.93l-35.54 437.95c-15.15,-4.71 -37.11,-8.88 -64.81,-11.5 -28.22,-2.61 -52.26,-3.66 -72.65,-3.66 -60.62,0 -118.63,7.84 -175.6,22.99 -56.44,15.16 -107.14,40.24 -152.08,74.22 -44.95,34.49 -80.48,78.91 -106.61,134.83 -26.14,55.4 -39.2,123.86 -39.2,204.35l0 871.22 -466.7 0 0 -1711.59 353.82 0 68.46 287.44 22.99 0c33.97,-58.01 75.78,-111.32 126.47,-159.92 50.7,-48.61 108.18,-87.28 172.99,-116.02 64.81,-29.27 134.84,-43.9 210.62,-43.9z"/>
  <path id="_3" class="fil1" d="M10623.28 1343.19c158.35,0 294.75,30.31 409.21,90.93 113.93,61.15 202.25,148.95 264.45,264.45 62.71,114.98 93.55,256.08 93.55,422.28l0 226.81 -1103.78 0c5.23,131.71 44.42,235.19 118.63,309.92 73.69,75.26 176.65,112.89 308.35,112.89 109.23,0 209.57,-11.5 299.99,-33.98 90.93,-22.47 184.49,-55.92 280.65,-100.86l0 361.13c-85.19,41.8 -173.51,72.64 -266.02,91.98 -92.51,19.34 -204.35,29.26 -336.05,29.26 -171.43,0 -322.99,-31.88 -455.21,-95.11 -132.22,-63.24 -236.22,-159.92 -310.96,-289.54 -75.26,-129.6 -112.36,-292.67 -112.36,-489.7 0,-200.16 33.44,-366.88 101.39,-500.15 67.94,-133.27 162.53,-233.09 284.31,-299.98 121.24,-66.89 262.88,-100.34 423.84,-100.34zm3.13 332.39c-90.93,0 -166.19,28.75 -225.78,87.28 -59.58,58.02 -94.07,149.47 -103.48,273.86l655.37 0c-1.05,-69.51 -13.59,-131.18 -37.63,-185.01 -23.52,-54.35 -59.58,-97.21 -107.14,-128.57 -47.03,-31.88 -107.66,-47.56 -181.35,-47.56z"/>
  <path id="_4" class="fil1" d="M12465.53 3118.02c-169.33,0 -314.1,-30.83 -433.26,-93.02 -119.69,-61.67 -210.62,-157.31 -272.81,-286.93 -62.2,-129.61 -93.03,-295.28 -93.03,-497.54 0,-209.57 35.01,-379.94 106.09,-512.17 71.08,-132.22 169.33,-229.43 295.81,-291.62 125.95,-62.2 272.29,-93.55 438.47,-93.55 118.12,0 220.55,11.5 306.78,34.49 86.23,23 161.48,50.18 225.77,82.06l-137.44 361.13c-73.69,-29.27 -142.16,-53.83 -205.39,-72.65 -63.24,-18.81 -126.48,-28.22 -189.72,-28.22 -81.52,0 -149.46,18.81 -203.82,57.49 -53.83,38.15 -94.07,95.64 -120.73,171.94 -26.65,76.83 -39.72,172.47 -39.72,287.96 0,113.41 14.12,207.48 42.85,281.7 28.22,74.73 69.51,130.13 123.86,166.19 54.36,36.06 119.69,54.36 197.55,54.36 96.69,0 183.44,-13.07 258.7,-39.2 75.78,-26.13 148.95,-62.19 220.55,-109.22l0 399.28c-71.6,44.95 -146.34,77.35 -224.2,97.21 -78.4,20.38 -177.17,30.31 -296.33,30.31z"/>
  <path id="_5" class="fil1" d="M14103.95 2745.91c50.69,0 100.87,-5.23 148.95,-15.68 48.61,-9.93 96.69,-22.99 144.77,-38.15l0 347.54c-50.18,22.47 -111.84,41.29 -186.06,55.92 -73.68,14.63 -154.69,22.47 -242.49,22.47 -101.92,0 -193.9,-16.73 -274.91,-50.17 -81.01,-32.93 -144.77,-90.42 -191.28,-172.99 -46.52,-82.06 -70.04,-196.51 -70.04,-343.36l0 -825.23 -223.16 0 0 -197.54 257.13 -156.26 134.83 -361.66 298.42 0 0 364.79 479.24 0 0 350.68 -479.24 0 0 825.23c0,65.32 18.81,113.93 55.92,145.81 37.11,32.4 86.23,48.61 147.9,48.61z"/>
  <path id="_6" class="fil1" d="M15445 1340.06c229.43,0 405.56,50.17 527.85,149.99 122.82,100.34 183.96,252.43 183.96,456.26l0 1140.88 -326.11 0 -90.42 -232.57 -12.02 0c-49.12,61.15 -99.3,111.32 -150.51,150 -50.7,38.67 -109.75,67.42 -175.6,85.7 -66.38,18.3 -147.39,27.7 -241.98,27.7 -101.39,0 -191.8,-19.86 -271.76,-58.53 -80.48,-38.67 -143.21,-98.26 -189.19,-178.22 -46,-79.96 -68.99,-181.87 -68.99,-305.73 0,-181.35 63.76,-315.67 191.28,-401.9 127.53,-86.24 319.33,-133.8 574.37,-142.68l296.85 -9.4 0 -75.26c0,-89.37 -23.52,-155.23 -70.55,-197.55 -46.52,-41.81 -111.84,-62.72 -195.98,-62.72 -82.58,0 -163.59,12.02 -243.03,35.55 -79.96,23.52 -159.4,52.78 -238.83,88.84l-154.7 -315.66c90.42,-48.08 192.33,-85.7 305.21,-113.41 112.89,-27.17 229.43,-41.28 350.16,-41.28zm247.72 953.79l-180.83 6.27c-151.04,4.18 -255.56,31.36 -314.61,81.01 -58.54,50.18 -87.8,116.02 -87.8,197.55 0,71.6 20.9,122.29 62.71,152.61 41.81,29.78 96.69,44.95 164.1,44.95 99.82,0 184.49,-29.27 252.95,-88.85 68.99,-59.06 103.48,-143.21 103.48,-252.43l0 -141.11z"/>
 </g>
</svg>
